# xmcd CD database file
#
# Track frame offsets:
#	182
#	13085
#	26330
#	39075
#	48540
#	61640
#	76020
#	88325
#	103400
#	113997
#	126697
#	143650
#	155267
#	165090
#	177692
#	197970
#	215092
#	227447
#	243270
#	260467
#	273032
#	288110
#	300687
#	313462
#
# Disc length: 4702 seconds
#
# Revision: 3
# Processed by: cddbd v1.4PL0 Copyright (c) Steve Scherf et al.
# Submitted via: CDex 1.50
#
DISCID=4c125c18
DTITLE=Albert King - The Ultimate Collection [CD1 of 2)
DYEAR=1993
DGENRE=Blues
TTITLE0=Be On Your Merry Way
TTITLE1=Murder
TTITLE2=Little Boy Blue
TTITLE3=C.O.D.
TTITLE4=Worsome Baby
TTITLE5=Lonsome
TTITLE6=You Threw Your Love On Me Too Strong
TTITLE7=Laundromat Blues
TTITLE8=Overall Junction
TTITLE9=Oh, Pretty Woman (Can't Make You Love Me)
TTITLE10=Funk-shun
TTITLE11=Crosscut Saw
TTITLE12=Down Don't Bother Me
TTITLE13=Born Under A Bad Sign
TTITLE14=Personal Manager
TTITLE15=The Very Thought Of You
TTITLE16=The Hunter
TTITLE17=I Almost Lost My Mind
TTITLE18=As The Years Go Passing By
TTITLE19=Cold Feet
TTITLE20=You Sure Drive A Hard Bargain
TTITLE21=(I Love) Lucy
TTITLE22=You're Gonna Need Me
TTITLE23=Blues At Sunrise
EXTD=YEAR: 1993
EXTT0=
EXTT1=
EXTT2=
EXTT3=
EXTT4=
EXTT5=
EXTT6=
EXTT7=
EXTT8=
EXTT9=
EXTT10=
EXTT11=
EXTT12=
EXTT13=
EXTT14=
EXTT15=
EXTT16=
EXTT17=
EXTT18=
EXTT19=
EXTT20=
EXTT21=
EXTT22=
EXTT23=
PLAYORDER=
